M48
;GenerationSoftware,Autodesk,EAGLE,9.6.2*%
;CreationDate,2023-04-15T18:44:25Z*%
FMAT,2
ICI,OFF
METRIC,TZ,000.000
T7C0.350
T6C0.914
T5C1.000
T4C1.016
T3C1.100
T2C1.118
T1C3.000
%
G90
M71
T1
X194310Y-99060
X33020Y-99060
X113665Y-99060
X33020Y81280
X194310Y81280
X113665Y81280
X33020Y-8890
X194310Y-8890
T2
X144780Y30670
X154940Y30670
X142240Y47180
X132080Y47180
X144272Y57848
X154432Y57848
X141732Y74359
X131572Y74359
T3
X59868Y32334
X59868Y29794
X57328Y32334
X57328Y29794
X65837Y32080
X68377Y32080
X65837Y29540
X68377Y29540
T4
X148920Y-21285
X77826Y-21082
X53950Y-19558
X83160Y-11684
X74270Y-11938
X84176Y-21082
X142723Y-37287
X118847Y-35763
X148057Y-27889
X139167Y-28143
X149073Y-37287
X77572Y-37059
X53696Y-35535
X82906Y-27661
X74016Y-27915
X83922Y-37059
X143408Y-53061
X119532Y-51537
X148742Y-43663
X139852Y-43917
X149758Y-53061
X77724Y-52705
X53848Y-51181
X83058Y-43307
X74168Y-43561
X84074Y-52705
X143688Y-68301
X119812Y-66777
X149022Y-58903
X140132Y-59157
X150038Y-68301
X77724Y-68504
X53848Y-66980
X83058Y-59106
X74168Y-59360
X84074Y-68504
X143993Y-84531
X120117Y-83007
X149327Y-75133
X141986Y10693
X150343Y-84531
X78003Y-84099
X54127Y-82575
X83337Y-74701
X74447Y-74955
X84353Y-84099
X144272Y-99898
X120396Y-98374
X149606Y-90500
X140716Y-90754
X150622Y-99898
X77927Y-99720
X54051Y-98196
X83261Y-90322
X74371Y-90576
X84277Y-99720
X95428Y40208
X104318Y40208
X83998Y40208
X115748Y40208
X121082Y27000
X51740Y30048
X75108Y40208
X119558Y35128
X139014Y-12141
X147904Y-11887
X118694Y-19761
X142570Y-21285
X84074Y-5283
X74168Y3861
X83058Y4115
X53848Y-3759
X140437Y-75387
X118110Y12217
X147320Y20091
X138430Y19837
X177800Y62420
X159512Y76137
X175260Y30670
X161290Y30670
X184150Y30670
X154940Y80709
X187198Y72581
X77724Y-5283
X148844Y-5131
X138938Y4013
X147828Y4267
X148336Y10693
X77572Y10516
X118618Y-3607
X142494Y-5131
X83922Y10516
X74016Y19660
X53696Y12040
X82906Y19914
T5
X184150Y67755
X184150Y65214
X184150Y62674
X184150Y60134
T6
X134620Y43371
X134620Y35751
X134112Y70549
X134112Y62928
T7
X96164Y3810
X93421Y23317
X96012Y19507
X158039Y-38710
X161849Y-44044
X158801Y-54407
X161849Y-59131
X159106Y-69647
X162154Y-75286
X157886Y-22708
X161087Y-28194
X157734Y-6553
X160934Y-12192
X157429Y9296
X160934Y3962
X162306Y-90678
X159410Y-85954
X146761Y14935
X183032Y-47854
X183032Y-54864
X106680Y-87173
X186690Y-46025
X182118Y-47854
X160172Y-72390
X115214Y-75133
X186690Y-47244
X167945Y-55321
X151333Y-56540
X104394Y-55016
X169469Y-54712
X110795Y-43739
X152400Y-55778
X105156Y-44958
X186080Y-49987
X104394Y-25146
X186690Y-50749
X181508Y-49987
X172364Y-40843
X169469Y-37948
X148133Y-24536
X105156Y-13106
X152400Y-8687
X178003Y-49987
X158801Y-40081
X138532Y-39929
X116129Y-23165
X106070Y-13106
X171602Y-5639
X37795Y-49987
X49225Y-54407
X52578Y-56388
X102260Y-56540
X49835Y-62027
X103175Y-56540
X103175Y-55626
X103632Y-40691
X36017Y-39573
X104242Y-39929
X36728Y-37490
X70256Y-25146
X99212Y-23774
X49073Y-26670
X50597Y-25756
X98298Y-23774
X48463Y-11278
X102540Y31826
X104242Y-7468
X93904Y37922
X106858Y37922
X107366Y27000
X115494Y37160
X85522Y31318
X114732Y32080
X63297Y30048
X72568Y33604
X178333Y25705
X145390Y25679
X144780Y7925
X183794Y6553
X168554Y6706
X134569Y6401
X79248Y18288
X145237Y-7772
X188519Y7772
X169164Y7772
X104394Y7010
X83210Y-610
X168554Y-6858
X148590Y-16612
X185014Y8687
X170383Y-12192
X108204Y-11887
X83363Y-16459
X169164Y-5791
X158648Y-24841
X146152Y-27889
X144475Y-29566
X188519Y6858
X169469Y-21031
X116281Y-24232
X83058Y-32461
X169774Y-4724
X168859Y-35966
X146914Y-43586
X145085Y-45415
X168097Y-5486
X147980Y-8687
X115976Y-8687
X103175Y-23622
X81534Y-28194
X79858Y-44958
X189433Y8687
X169774Y-70866
X146304Y-71018
X136398Y7620
X101956Y-23470
X80772Y-27432
X79248Y-60808
X189890Y10668
X158801Y-81839
X188519Y12802
X152095Y-88087
X105156Y-86563
X190652Y10058
X190957Y9144
X171298Y-71171
X113995Y-75133
X103327Y-86411
X87630Y-90068
X102540Y-10693
X92964Y9144
X96164Y-11887
X92964Y-6706
X96012Y-28042
X93269Y-22403
X96164Y-43739
X92964Y-38405
X93116Y-54102
X95860Y-59284
X93269Y-69799
X96164Y-74828
X93421Y-85496
X96012Y-90526
X99492Y33096
X93396Y25984
X159512Y64960
X144018Y73851
X158496Y46672
X144780Y46672
X180594Y44806
X180848Y34481
X83744Y35128
X71323Y9906
X72238Y4724
X136246Y-5791
X137008Y-11278
X135788Y10058
X137008Y4877
X136550Y26670
X136703Y20726
X72085Y20574
X137312Y-68885
X138532Y-74524
X137008Y-27432
X135636Y-22708
X136246Y-38557
X137770Y-43129
X137160Y-53645
X138074Y-58369
X136855Y-85192
X136855Y-92050
X72085Y-11278
X70866Y-6706
X71933Y-27127
X70866Y-22403
X71323Y-69037
X72542Y-74066
X72085Y-58674
X70866Y-54102
X72085Y-42824
X70714Y-38405
X71780Y-84734
X72238Y-89764
X132588Y56959
X83744Y38176
X96901Y-57074
X95758Y-25679
X152298Y-10922
X171069Y-8458
X127406Y33096
X167284Y-26721
X167665Y-12675
X168656Y2642
X102057Y5004
X162357Y-9957
X167284Y-7366
X168072Y-39446
X195885Y-50698
X185318Y-46965
X184582Y-50648
X183998Y-53416
X180899Y-41224
X177952Y-43967
X111354Y-19304
X51156Y-54737
X116256Y-42418
X102311Y-28067
X95783Y-22047
X108966Y-27000
X108255Y-21336
X41427Y-48438
X43180Y-23571
X150139Y-8687
X109499Y5410
X179375Y12700
X163576Y-6401
X109322Y-53188
X180289Y-50927
X154432Y-26772
X170866Y-46253
X174320Y-11557
X171425Y-15240
X192507Y-5359
X180696Y-5385
X79553Y-19025
X143307Y-19177
X143459Y-35204
X79502Y-3277
X67361Y-4496
X79248Y-35052
X66954Y-36373
X120904Y13741
X56490Y13564
X121412Y-2083
X56642Y-2235
X121488Y-18237
X56744Y-18034
X121641Y-34239
X56490Y-34011
X122326Y-50013
X56642Y-49657
X122606Y-65253
X56642Y-65456
X122911Y-81483
X56921Y-81051
X123190Y-96850
X56845Y-96672
X117094Y51879
X167894Y30162
X174752Y56578
X174244Y49212
X134620Y58356
X134620Y52260
X134620Y31432
X159258Y56324
X106604Y28270
X70256Y-9144
M30