G04 EAGLE Gerber RS-274X export*
G75*
%MOMM*%
%FSLAX34Y34*%
%LPD*%
%INSoldermask Top*%
%IPPOS*%
%AMOC8*
5,1,8,0,0,1.08239X$1,22.5*%
G01*
%ADD10C,3.203200*%
%ADD11R,1.703200X1.503200*%
%ADD12R,2.438400X1.447800*%
%ADD13R,10.863200X8.583200*%
%ADD14R,1.219200X3.253200*%
%ADD15P,1.759533X8X292.500000*%
%ADD16R,2.703200X3.103200*%
%ADD17R,3.103200X2.703200*%
%ADD18C,1.879600*%
%ADD19R,1.203200X1.953200*%
%ADD20R,5.753200X6.553200*%
%ADD21R,1.803200X1.503200*%
%ADD22R,1.503200X1.803200*%
%ADD23P,1.869504X8X202.500000*%
%ADD24C,1.711200*%
%ADD25R,1.503200X1.703200*%
%ADD26R,1.853200X1.853200*%
%ADD27C,1.853200*%
%ADD28R,1.203200X1.303200*%
%ADD29R,0.660400X1.117600*%
%ADD30R,2.184400X0.762000*%
%ADD31P,1.869504X8X22.500000*%
%ADD32R,1.003200X0.503200*%
%ADD33R,1.603200X1.423200*%
%ADD34R,1.603200X1.053200*%
%ADD35R,1.803200X1.103200*%


D10*
X1943100Y-990600D03*
X330200Y-990600D03*
X1136650Y-990600D03*
X330200Y812800D03*
X1943100Y812800D03*
X1136650Y812800D03*
X330200Y-88900D03*
X1943100Y-88900D03*
D11*
X1778000Y544805D03*
X1778000Y525805D03*
X1765300Y412725D03*
X1765300Y393725D03*
D12*
X1746758Y776605D03*
X1746758Y725805D03*
X1834642Y725805D03*
X1834642Y776605D03*
D13*
X1663700Y509905D03*
D14*
X1638300Y396805D03*
X1689100Y396805D03*
D15*
X1346200Y433705D03*
X1346200Y357505D03*
D16*
X1536700Y363105D03*
X1536700Y428105D03*
D17*
X1466100Y514985D03*
X1531100Y514985D03*
D18*
X1447800Y306705D03*
X1549400Y306705D03*
X1422400Y471805D03*
X1320800Y471805D03*
D19*
X1470650Y442605D03*
X1424950Y442605D03*
D20*
X1447800Y371605D03*
D21*
X1397000Y328905D03*
X1397000Y309905D03*
D22*
X1400200Y522605D03*
X1419200Y522605D03*
D15*
X1341120Y705485D03*
X1341120Y629285D03*
D16*
X1531620Y634885D03*
X1531620Y699885D03*
D17*
X1415300Y791845D03*
X1480300Y791845D03*
D18*
X1442720Y578485D03*
X1544320Y578485D03*
X1417320Y743585D03*
X1315720Y743585D03*
D19*
X1465570Y714385D03*
X1419870Y714385D03*
D20*
X1442720Y643385D03*
D21*
X1391920Y600685D03*
X1391920Y581685D03*
D22*
X1351940Y791845D03*
X1370940Y791845D03*
D16*
X1841500Y542405D03*
X1841500Y477405D03*
D17*
X1659140Y611505D03*
X1724140Y611505D03*
X1693660Y715645D03*
X1628660Y715645D03*
D23*
X1871980Y725805D03*
X1549400Y807085D03*
X1841500Y306705D03*
X1612900Y306705D03*
X1752600Y306705D03*
X1595120Y761365D03*
X1778000Y624205D03*
D24*
X1833960Y677545D02*
X1849040Y677545D01*
X1849040Y652145D02*
X1833960Y652145D01*
X1833960Y626745D02*
X1849040Y626745D01*
X1849040Y601345D02*
X1833960Y601345D01*
D25*
X792378Y275082D03*
X811378Y275082D03*
X792378Y351282D03*
X811378Y351282D03*
X986638Y351282D03*
X967638Y351282D03*
X909218Y351282D03*
X928218Y351282D03*
X912978Y275082D03*
X893978Y275082D03*
X942238Y275082D03*
X961238Y275082D03*
D26*
X598678Y323342D03*
D27*
X598678Y297942D03*
X573278Y323342D03*
X573278Y297942D03*
D26*
X658368Y320802D03*
D27*
X683768Y320802D03*
X658368Y295402D03*
X683768Y295402D03*
D28*
X742578Y287782D03*
X759578Y287782D03*
X742578Y325882D03*
X759578Y325882D03*
X1138818Y275082D03*
X1155818Y275082D03*
X869578Y325882D03*
X886578Y325882D03*
D25*
X1059078Y351282D03*
X1078078Y351282D03*
D28*
X869578Y300482D03*
X886578Y300482D03*
X1009278Y300482D03*
X1026278Y300482D03*
D29*
X1046378Y300228D03*
X1065378Y300228D03*
X1055878Y326136D03*
D30*
X787400Y332232D03*
X787400Y319532D03*
X787400Y306832D03*
X787400Y294132D03*
X836676Y294132D03*
X836676Y306832D03*
X836676Y319532D03*
X836676Y332232D03*
X916940Y332232D03*
X916940Y319532D03*
X916940Y306832D03*
X916940Y294132D03*
X966216Y294132D03*
X966216Y306832D03*
X966216Y319532D03*
X966216Y332232D03*
D31*
X1195578Y351282D03*
X751078Y402082D03*
X517398Y300482D03*
X1210818Y270002D03*
X1157478Y402082D03*
X839978Y402082D03*
X1043178Y402082D03*
X954278Y402082D03*
D28*
X1184538Y320802D03*
X1201538Y320802D03*
D22*
X1619300Y348705D03*
X1638300Y348705D03*
D21*
X1843800Y418205D03*
X1843800Y399205D03*
D32*
X377510Y-435960D03*
X377510Y-430960D03*
X377510Y-425960D03*
X377510Y-420960D03*
X377510Y-415960D03*
X377510Y-410960D03*
X377510Y-405960D03*
X377510Y-400960D03*
X377510Y-395960D03*
X377510Y-390960D03*
X377510Y-385960D03*
X377510Y-380960D03*
X377510Y-375960D03*
X377510Y-370960D03*
X377510Y-365960D03*
X377510Y-360960D03*
X377510Y-355960D03*
X377510Y-350960D03*
X377510Y-345960D03*
X377510Y-340960D03*
X377510Y-335960D03*
X377510Y-330960D03*
X377510Y-325960D03*
X377510Y-320960D03*
D33*
X329010Y-308560D03*
D34*
X318910Y-366710D03*
X318910Y-390210D03*
D33*
X329010Y-448360D03*
D32*
X1875470Y136240D03*
X1875470Y131240D03*
X1875470Y126240D03*
X1875470Y121240D03*
X1875470Y116240D03*
X1875470Y111240D03*
X1875470Y106240D03*
X1875470Y101240D03*
X1875470Y96240D03*
X1875470Y91240D03*
X1875470Y86240D03*
X1875470Y81240D03*
X1875470Y76240D03*
X1875470Y71240D03*
X1875470Y66240D03*
X1875470Y61240D03*
X1875470Y56240D03*
X1875470Y51240D03*
X1875470Y46240D03*
X1875470Y41240D03*
X1875470Y36240D03*
X1875470Y31240D03*
X1875470Y26240D03*
X1875470Y21240D03*
D33*
X1923970Y8840D03*
D34*
X1934070Y66990D03*
X1934070Y90490D03*
D33*
X1923970Y148640D03*
D32*
X1876740Y-455580D03*
X1876740Y-460580D03*
X1876740Y-465580D03*
X1876740Y-470580D03*
X1876740Y-475580D03*
X1876740Y-480580D03*
X1876740Y-485580D03*
X1876740Y-490580D03*
X1876740Y-495580D03*
X1876740Y-500580D03*
X1876740Y-505580D03*
X1876740Y-510580D03*
X1876740Y-515580D03*
X1876740Y-520580D03*
X1876740Y-525580D03*
X1876740Y-530580D03*
X1876740Y-535580D03*
X1876740Y-540580D03*
X1876740Y-545580D03*
X1876740Y-550580D03*
X1876740Y-555580D03*
X1876740Y-560580D03*
X1876740Y-565580D03*
X1876740Y-570580D03*
D33*
X1925240Y-582980D03*
D34*
X1935340Y-524830D03*
X1935340Y-501330D03*
D33*
X1925240Y-443180D03*
D25*
X975512Y-913384D03*
X994512Y-913384D03*
X710032Y-989584D03*
X691032Y-989584D03*
X980592Y-994664D03*
X999592Y-994664D03*
X710032Y-905764D03*
X691032Y-905764D03*
D31*
X842772Y-997204D03*
X743712Y-905764D03*
X832612Y-903224D03*
X540512Y-981964D03*
D25*
X617372Y-941324D03*
X636372Y-941324D03*
X574192Y-981964D03*
X593192Y-981964D03*
X931012Y-913384D03*
X912012Y-913384D03*
X925932Y-948944D03*
X906932Y-948944D03*
D28*
X882532Y-989584D03*
X899532Y-989584D03*
D25*
X774852Y-933704D03*
X793852Y-933704D03*
X777392Y-961644D03*
X796392Y-961644D03*
X619912Y-913384D03*
X638912Y-913384D03*
D11*
X629412Y-983844D03*
X629412Y-964844D03*
D35*
X837332Y-940024D03*
D21*
X868532Y-954024D03*
D35*
X837332Y-968024D03*
X555392Y-909544D03*
D21*
X586592Y-923544D03*
D35*
X555392Y-937544D03*
D31*
X779272Y-997204D03*
D30*
X962914Y-934974D03*
X962914Y-947674D03*
X962914Y-960374D03*
X962914Y-973074D03*
X1012190Y-973074D03*
X1012190Y-960374D03*
X1012190Y-947674D03*
X1012190Y-934974D03*
X675894Y-929894D03*
X675894Y-942594D03*
X675894Y-955294D03*
X675894Y-967994D03*
X725170Y-967994D03*
X725170Y-955294D03*
X725170Y-942594D03*
X725170Y-929894D03*
D25*
X1638960Y-915162D03*
X1657960Y-915162D03*
X1373480Y-991362D03*
X1354480Y-991362D03*
X1644040Y-996442D03*
X1663040Y-996442D03*
X1373480Y-907542D03*
X1354480Y-907542D03*
D31*
X1506220Y-998982D03*
X1407160Y-907542D03*
X1496060Y-905002D03*
X1203960Y-983742D03*
D25*
X1280820Y-943102D03*
X1299820Y-943102D03*
X1237640Y-983742D03*
X1256640Y-983742D03*
X1594460Y-915162D03*
X1575460Y-915162D03*
X1589380Y-950722D03*
X1570380Y-950722D03*
D28*
X1545980Y-991362D03*
X1562980Y-991362D03*
D25*
X1438300Y-935482D03*
X1457300Y-935482D03*
X1440840Y-963422D03*
X1459840Y-963422D03*
X1283360Y-915162D03*
X1302360Y-915162D03*
D11*
X1292860Y-985622D03*
X1292860Y-966622D03*
D35*
X1500780Y-941802D03*
D21*
X1531980Y-955802D03*
D35*
X1500780Y-969802D03*
X1218840Y-911322D03*
D21*
X1250040Y-925322D03*
D35*
X1218840Y-939322D03*
D31*
X1442720Y-998982D03*
D30*
X1626362Y-936752D03*
X1626362Y-949452D03*
X1626362Y-962152D03*
X1626362Y-974852D03*
X1675638Y-974852D03*
X1675638Y-962152D03*
X1675638Y-949452D03*
X1675638Y-936752D03*
X1339342Y-931672D03*
X1339342Y-944372D03*
X1339342Y-957072D03*
X1339342Y-969772D03*
X1388618Y-969772D03*
X1388618Y-957072D03*
X1388618Y-944372D03*
X1388618Y-931672D03*
D25*
X976274Y-757174D03*
X995274Y-757174D03*
X710794Y-833374D03*
X691794Y-833374D03*
X981354Y-838454D03*
X1000354Y-838454D03*
X710794Y-749554D03*
X691794Y-749554D03*
D31*
X843534Y-840994D03*
X744474Y-749554D03*
X833374Y-747014D03*
X541274Y-825754D03*
D25*
X618134Y-785114D03*
X637134Y-785114D03*
X574954Y-825754D03*
X593954Y-825754D03*
X931774Y-757174D03*
X912774Y-757174D03*
X926694Y-792734D03*
X907694Y-792734D03*
D28*
X883294Y-833374D03*
X900294Y-833374D03*
D25*
X775614Y-777494D03*
X794614Y-777494D03*
X778154Y-805434D03*
X797154Y-805434D03*
X620674Y-757174D03*
X639674Y-757174D03*
D11*
X630174Y-827634D03*
X630174Y-808634D03*
D35*
X838094Y-783814D03*
D21*
X869294Y-797814D03*
D35*
X838094Y-811814D03*
X556154Y-753334D03*
D21*
X587354Y-767334D03*
D35*
X556154Y-781334D03*
D31*
X780034Y-840994D03*
D30*
X963676Y-778764D03*
X963676Y-791464D03*
X963676Y-804164D03*
X963676Y-816864D03*
X1012952Y-816864D03*
X1012952Y-804164D03*
X1012952Y-791464D03*
X1012952Y-778764D03*
X676656Y-773684D03*
X676656Y-786384D03*
X676656Y-799084D03*
X676656Y-811784D03*
X725932Y-811784D03*
X725932Y-799084D03*
X725932Y-786384D03*
X725932Y-773684D03*
D25*
X1636166Y-761492D03*
X1655166Y-761492D03*
X1370686Y-837692D03*
X1351686Y-837692D03*
X1641246Y-842772D03*
X1660246Y-842772D03*
X1370686Y-753872D03*
X1351686Y-753872D03*
D31*
X1503426Y-845312D03*
X1404366Y-753872D03*
X1493266Y-751332D03*
X1201166Y-830072D03*
D25*
X1278026Y-789432D03*
X1297026Y-789432D03*
X1234846Y-830072D03*
X1253846Y-830072D03*
X1591666Y-761492D03*
X1572666Y-761492D03*
X1586586Y-797052D03*
X1567586Y-797052D03*
D28*
X1543186Y-837692D03*
X1560186Y-837692D03*
D25*
X1435506Y-781812D03*
X1454506Y-781812D03*
X1438046Y-809752D03*
X1457046Y-809752D03*
X1280566Y-761492D03*
X1299566Y-761492D03*
D11*
X1290066Y-831952D03*
X1290066Y-812952D03*
D35*
X1497986Y-788132D03*
D21*
X1529186Y-802132D03*
D35*
X1497986Y-816132D03*
X1216046Y-757652D03*
D21*
X1247246Y-771652D03*
D35*
X1216046Y-785652D03*
D31*
X1439926Y-845312D03*
D30*
X1623568Y-783082D03*
X1623568Y-795782D03*
X1623568Y-808482D03*
X1623568Y-821182D03*
X1672844Y-821182D03*
X1672844Y-808482D03*
X1672844Y-795782D03*
X1672844Y-783082D03*
X1336548Y-778002D03*
X1336548Y-790702D03*
X1336548Y-803402D03*
X1336548Y-816102D03*
X1385824Y-816102D03*
X1385824Y-803402D03*
X1385824Y-790702D03*
X1385824Y-778002D03*
D25*
X973480Y-601218D03*
X992480Y-601218D03*
X708000Y-677418D03*
X689000Y-677418D03*
X978560Y-682498D03*
X997560Y-682498D03*
X708000Y-593598D03*
X689000Y-593598D03*
D31*
X840740Y-685038D03*
X741680Y-593598D03*
X830580Y-591058D03*
X538480Y-669798D03*
D25*
X615340Y-629158D03*
X634340Y-629158D03*
X572160Y-669798D03*
X591160Y-669798D03*
X928980Y-601218D03*
X909980Y-601218D03*
X923900Y-636778D03*
X904900Y-636778D03*
D28*
X880500Y-677418D03*
X897500Y-677418D03*
D25*
X772820Y-621538D03*
X791820Y-621538D03*
X775360Y-649478D03*
X794360Y-649478D03*
X617880Y-601218D03*
X636880Y-601218D03*
D11*
X627380Y-671678D03*
X627380Y-652678D03*
D35*
X835300Y-627858D03*
D21*
X866500Y-641858D03*
D35*
X835300Y-655858D03*
X553360Y-597378D03*
D21*
X584560Y-611378D03*
D35*
X553360Y-625378D03*
D31*
X777240Y-685038D03*
D30*
X960882Y-622808D03*
X960882Y-635508D03*
X960882Y-648208D03*
X960882Y-660908D03*
X1010158Y-660908D03*
X1010158Y-648208D03*
X1010158Y-635508D03*
X1010158Y-622808D03*
X673862Y-617728D03*
X673862Y-630428D03*
X673862Y-643128D03*
X673862Y-655828D03*
X723138Y-655828D03*
X723138Y-643128D03*
X723138Y-630428D03*
X723138Y-617728D03*
D25*
X1633118Y-599186D03*
X1652118Y-599186D03*
X1367638Y-675386D03*
X1348638Y-675386D03*
X1638198Y-680466D03*
X1657198Y-680466D03*
X1367638Y-591566D03*
X1348638Y-591566D03*
D31*
X1500378Y-683006D03*
X1401318Y-591566D03*
X1490218Y-589026D03*
X1198118Y-667766D03*
D25*
X1274978Y-627126D03*
X1293978Y-627126D03*
X1231798Y-667766D03*
X1250798Y-667766D03*
X1588618Y-599186D03*
X1569618Y-599186D03*
X1583538Y-634746D03*
X1564538Y-634746D03*
D28*
X1540138Y-675386D03*
X1557138Y-675386D03*
D25*
X1432458Y-619506D03*
X1451458Y-619506D03*
X1434998Y-647446D03*
X1453998Y-647446D03*
X1277518Y-599186D03*
X1296518Y-599186D03*
D11*
X1287018Y-669646D03*
X1287018Y-650646D03*
D35*
X1494938Y-625826D03*
D21*
X1526138Y-639826D03*
D35*
X1494938Y-653826D03*
X1212998Y-595346D03*
D21*
X1244198Y-609346D03*
D35*
X1212998Y-623346D03*
D31*
X1436878Y-683006D03*
D30*
X1620520Y-620776D03*
X1620520Y-633476D03*
X1620520Y-646176D03*
X1620520Y-658876D03*
X1669796Y-658876D03*
X1669796Y-646176D03*
X1669796Y-633476D03*
X1669796Y-620776D03*
X1333500Y-615696D03*
X1333500Y-628396D03*
X1333500Y-641096D03*
X1333500Y-653796D03*
X1382776Y-653796D03*
X1382776Y-641096D03*
X1382776Y-628396D03*
X1382776Y-615696D03*
D25*
X973480Y-443230D03*
X992480Y-443230D03*
X708000Y-519430D03*
X689000Y-519430D03*
X978560Y-524510D03*
X997560Y-524510D03*
X708000Y-435610D03*
X689000Y-435610D03*
D31*
X840740Y-527050D03*
X741680Y-435610D03*
X830580Y-433070D03*
X538480Y-511810D03*
D25*
X615340Y-471170D03*
X634340Y-471170D03*
X572160Y-511810D03*
X591160Y-511810D03*
X928980Y-443230D03*
X909980Y-443230D03*
X923900Y-478790D03*
X904900Y-478790D03*
D28*
X880500Y-519430D03*
X897500Y-519430D03*
D25*
X772820Y-463550D03*
X791820Y-463550D03*
X775360Y-491490D03*
X794360Y-491490D03*
X617880Y-443230D03*
X636880Y-443230D03*
D11*
X627380Y-513690D03*
X627380Y-494690D03*
D35*
X835300Y-469870D03*
D21*
X866500Y-483870D03*
D35*
X835300Y-497870D03*
X553360Y-439390D03*
D21*
X584560Y-453390D03*
D35*
X553360Y-467390D03*
D31*
X777240Y-527050D03*
D30*
X960882Y-464820D03*
X960882Y-477520D03*
X960882Y-490220D03*
X960882Y-502920D03*
X1010158Y-502920D03*
X1010158Y-490220D03*
X1010158Y-477520D03*
X1010158Y-464820D03*
X673862Y-459740D03*
X673862Y-472440D03*
X673862Y-485140D03*
X673862Y-497840D03*
X723138Y-497840D03*
X723138Y-485140D03*
X723138Y-472440D03*
X723138Y-459740D03*
D25*
X1630324Y-446786D03*
X1649324Y-446786D03*
X1364844Y-522986D03*
X1345844Y-522986D03*
X1635404Y-528066D03*
X1654404Y-528066D03*
X1364844Y-439166D03*
X1345844Y-439166D03*
D31*
X1497584Y-530606D03*
X1398524Y-439166D03*
X1487424Y-436626D03*
X1195324Y-515366D03*
D25*
X1272184Y-474726D03*
X1291184Y-474726D03*
X1229004Y-515366D03*
X1248004Y-515366D03*
X1585824Y-446786D03*
X1566824Y-446786D03*
X1580744Y-482346D03*
X1561744Y-482346D03*
D28*
X1537344Y-522986D03*
X1554344Y-522986D03*
D25*
X1429664Y-467106D03*
X1448664Y-467106D03*
X1432204Y-495046D03*
X1451204Y-495046D03*
X1274724Y-446786D03*
X1293724Y-446786D03*
D11*
X1284224Y-517246D03*
X1284224Y-498246D03*
D35*
X1492144Y-473426D03*
D21*
X1523344Y-487426D03*
D35*
X1492144Y-501426D03*
X1210204Y-442946D03*
D21*
X1241404Y-456946D03*
D35*
X1210204Y-470946D03*
D31*
X1434084Y-530606D03*
D30*
X1617726Y-468376D03*
X1617726Y-481076D03*
X1617726Y-493776D03*
X1617726Y-506476D03*
X1667002Y-506476D03*
X1667002Y-493776D03*
X1667002Y-481076D03*
X1667002Y-468376D03*
X1330706Y-463296D03*
X1330706Y-475996D03*
X1330706Y-488696D03*
X1330706Y-501396D03*
X1379982Y-501396D03*
X1379982Y-488696D03*
X1379982Y-475996D03*
X1379982Y-463296D03*
D25*
X971956Y-286766D03*
X990956Y-286766D03*
X706476Y-362966D03*
X687476Y-362966D03*
X977036Y-368046D03*
X996036Y-368046D03*
X706476Y-279146D03*
X687476Y-279146D03*
D31*
X839216Y-370586D03*
X740156Y-279146D03*
X829056Y-276606D03*
X536956Y-355346D03*
D25*
X613816Y-314706D03*
X632816Y-314706D03*
X570636Y-355346D03*
X589636Y-355346D03*
X927456Y-286766D03*
X908456Y-286766D03*
X922376Y-322326D03*
X903376Y-322326D03*
D28*
X878976Y-362966D03*
X895976Y-362966D03*
D25*
X771296Y-307086D03*
X790296Y-307086D03*
X773836Y-335026D03*
X792836Y-335026D03*
X616356Y-286766D03*
X635356Y-286766D03*
D11*
X625856Y-357226D03*
X625856Y-338226D03*
D35*
X833776Y-313406D03*
D21*
X864976Y-327406D03*
D35*
X833776Y-341406D03*
X551836Y-282926D03*
D21*
X583036Y-296926D03*
D35*
X551836Y-310926D03*
D31*
X775716Y-370586D03*
D30*
X959358Y-308356D03*
X959358Y-321056D03*
X959358Y-333756D03*
X959358Y-346456D03*
X1008634Y-346456D03*
X1008634Y-333756D03*
X1008634Y-321056D03*
X1008634Y-308356D03*
X672338Y-303276D03*
X672338Y-315976D03*
X672338Y-328676D03*
X672338Y-341376D03*
X721614Y-341376D03*
X721614Y-328676D03*
X721614Y-315976D03*
X721614Y-303276D03*
D25*
X1623466Y-289052D03*
X1642466Y-289052D03*
X1357986Y-365252D03*
X1338986Y-365252D03*
X1628546Y-370332D03*
X1647546Y-370332D03*
X1357986Y-281432D03*
X1338986Y-281432D03*
D31*
X1490726Y-372872D03*
X1391666Y-281432D03*
X1480566Y-278892D03*
X1188466Y-357632D03*
D25*
X1265326Y-316992D03*
X1284326Y-316992D03*
X1222146Y-357632D03*
X1241146Y-357632D03*
X1578966Y-289052D03*
X1559966Y-289052D03*
X1573886Y-324612D03*
X1554886Y-324612D03*
D28*
X1530486Y-365252D03*
X1547486Y-365252D03*
D25*
X1422806Y-309372D03*
X1441806Y-309372D03*
X1425346Y-337312D03*
X1444346Y-337312D03*
X1267866Y-289052D03*
X1286866Y-289052D03*
D11*
X1277366Y-359512D03*
X1277366Y-340512D03*
D35*
X1485286Y-315692D03*
D21*
X1516486Y-329692D03*
D35*
X1485286Y-343692D03*
X1203346Y-285212D03*
D21*
X1234546Y-299212D03*
D35*
X1203346Y-313212D03*
D31*
X1427226Y-372872D03*
D30*
X1610868Y-310642D03*
X1610868Y-323342D03*
X1610868Y-336042D03*
X1610868Y-348742D03*
X1660144Y-348742D03*
X1660144Y-336042D03*
X1660144Y-323342D03*
X1660144Y-310642D03*
X1323848Y-305562D03*
X1323848Y-318262D03*
X1323848Y-330962D03*
X1323848Y-343662D03*
X1373124Y-343662D03*
X1373124Y-330962D03*
X1373124Y-318262D03*
X1373124Y-305562D03*
D25*
X974496Y-127000D03*
X993496Y-127000D03*
X709016Y-203200D03*
X690016Y-203200D03*
X979576Y-208280D03*
X998576Y-208280D03*
X709016Y-119380D03*
X690016Y-119380D03*
D31*
X841756Y-210820D03*
X742696Y-119380D03*
X831596Y-116840D03*
X539496Y-195580D03*
D25*
X616356Y-154940D03*
X635356Y-154940D03*
X573176Y-195580D03*
X592176Y-195580D03*
X929996Y-127000D03*
X910996Y-127000D03*
X924916Y-162560D03*
X905916Y-162560D03*
D28*
X881516Y-203200D03*
X898516Y-203200D03*
D25*
X773836Y-147320D03*
X792836Y-147320D03*
X776376Y-175260D03*
X795376Y-175260D03*
X618896Y-127000D03*
X637896Y-127000D03*
D11*
X628396Y-197460D03*
X628396Y-178460D03*
D35*
X836316Y-153640D03*
D21*
X867516Y-167640D03*
D35*
X836316Y-181640D03*
X554376Y-123160D03*
D21*
X585576Y-137160D03*
D35*
X554376Y-151160D03*
D31*
X778256Y-210820D03*
D30*
X961898Y-148590D03*
X961898Y-161290D03*
X961898Y-173990D03*
X961898Y-186690D03*
X1011174Y-186690D03*
X1011174Y-173990D03*
X1011174Y-161290D03*
X1011174Y-148590D03*
X674878Y-143510D03*
X674878Y-156210D03*
X674878Y-168910D03*
X674878Y-181610D03*
X724154Y-181610D03*
X724154Y-168910D03*
X724154Y-156210D03*
X724154Y-143510D03*
D25*
X1621942Y-129032D03*
X1640942Y-129032D03*
X1356462Y-205232D03*
X1337462Y-205232D03*
X1627022Y-210312D03*
X1646022Y-210312D03*
X1356462Y-121412D03*
X1337462Y-121412D03*
D31*
X1489202Y-212852D03*
X1390142Y-121412D03*
X1479042Y-118872D03*
X1186942Y-197612D03*
D25*
X1263802Y-156972D03*
X1282802Y-156972D03*
X1220622Y-197612D03*
X1239622Y-197612D03*
X1577442Y-129032D03*
X1558442Y-129032D03*
X1572362Y-164592D03*
X1553362Y-164592D03*
D28*
X1528962Y-205232D03*
X1545962Y-205232D03*
D25*
X1421282Y-149352D03*
X1440282Y-149352D03*
X1423822Y-177292D03*
X1442822Y-177292D03*
X1266342Y-129032D03*
X1285342Y-129032D03*
D11*
X1275842Y-199492D03*
X1275842Y-180492D03*
D35*
X1483762Y-155672D03*
D21*
X1514962Y-169672D03*
D35*
X1483762Y-183672D03*
X1201822Y-125192D03*
D21*
X1233022Y-139192D03*
D35*
X1201822Y-153192D03*
D31*
X1425702Y-212852D03*
D30*
X1609344Y-150622D03*
X1609344Y-163322D03*
X1609344Y-176022D03*
X1609344Y-188722D03*
X1658620Y-188722D03*
X1658620Y-176022D03*
X1658620Y-163322D03*
X1658620Y-150622D03*
X1322324Y-145542D03*
X1322324Y-158242D03*
X1322324Y-170942D03*
X1322324Y-183642D03*
X1371600Y-183642D03*
X1371600Y-170942D03*
X1371600Y-158242D03*
X1371600Y-145542D03*
D25*
X973480Y30988D03*
X992480Y30988D03*
X708000Y-45212D03*
X689000Y-45212D03*
X978560Y-50292D03*
X997560Y-50292D03*
X708000Y38608D03*
X689000Y38608D03*
D31*
X840740Y-52832D03*
X741680Y38608D03*
X830580Y41148D03*
X538480Y-37592D03*
D25*
X615340Y3048D03*
X634340Y3048D03*
X572160Y-37592D03*
X591160Y-37592D03*
X928980Y30988D03*
X909980Y30988D03*
X923900Y-4572D03*
X904900Y-4572D03*
D28*
X880500Y-45212D03*
X897500Y-45212D03*
D25*
X772820Y10668D03*
X791820Y10668D03*
X775360Y-17272D03*
X794360Y-17272D03*
X617880Y30988D03*
X636880Y30988D03*
D11*
X627380Y-39472D03*
X627380Y-20472D03*
D35*
X835300Y4348D03*
D21*
X866500Y-9652D03*
D35*
X835300Y-23652D03*
X553360Y34828D03*
D21*
X584560Y20828D03*
D35*
X553360Y6828D03*
D31*
X777240Y-52832D03*
D30*
X960882Y9398D03*
X960882Y-3302D03*
X960882Y-16002D03*
X960882Y-28702D03*
X1010158Y-28702D03*
X1010158Y-16002D03*
X1010158Y-3302D03*
X1010158Y9398D03*
X673862Y14478D03*
X673862Y1778D03*
X673862Y-10922D03*
X673862Y-23622D03*
X723138Y-23622D03*
X723138Y-10922D03*
X723138Y1778D03*
X723138Y14478D03*
D25*
X1621180Y32512D03*
X1640180Y32512D03*
X1355700Y-43688D03*
X1336700Y-43688D03*
X1626260Y-48768D03*
X1645260Y-48768D03*
X1355700Y40132D03*
X1336700Y40132D03*
D31*
X1488440Y-51308D03*
X1389380Y40132D03*
X1478280Y42672D03*
X1186180Y-36068D03*
D25*
X1263040Y4572D03*
X1282040Y4572D03*
X1219860Y-36068D03*
X1238860Y-36068D03*
X1576680Y32512D03*
X1557680Y32512D03*
X1571600Y-3048D03*
X1552600Y-3048D03*
D28*
X1528200Y-43688D03*
X1545200Y-43688D03*
D25*
X1420520Y12192D03*
X1439520Y12192D03*
X1423060Y-15748D03*
X1442060Y-15748D03*
X1265580Y32512D03*
X1284580Y32512D03*
D11*
X1275080Y-37948D03*
X1275080Y-18948D03*
D35*
X1483000Y5872D03*
D21*
X1514200Y-8128D03*
D35*
X1483000Y-22128D03*
X1201060Y36352D03*
D21*
X1232260Y22352D03*
D35*
X1201060Y8352D03*
D31*
X1424940Y-51308D03*
D30*
X1608582Y10922D03*
X1608582Y-1778D03*
X1608582Y-14478D03*
X1608582Y-27178D03*
X1657858Y-27178D03*
X1657858Y-14478D03*
X1657858Y-1778D03*
X1657858Y10922D03*
X1321562Y16002D03*
X1321562Y3302D03*
X1321562Y-9398D03*
X1321562Y-22098D03*
X1370838Y-22098D03*
X1370838Y-9398D03*
X1370838Y3302D03*
X1370838Y16002D03*
D25*
X971956Y188976D03*
X990956Y188976D03*
X706476Y112776D03*
X687476Y112776D03*
X977036Y107696D03*
X996036Y107696D03*
X706476Y196596D03*
X687476Y196596D03*
D31*
X839216Y105156D03*
X740156Y196596D03*
X829056Y199136D03*
X536956Y120396D03*
D25*
X613816Y161036D03*
X632816Y161036D03*
X570636Y120396D03*
X589636Y120396D03*
X927456Y188976D03*
X908456Y188976D03*
X922376Y153416D03*
X903376Y153416D03*
D28*
X878976Y112776D03*
X895976Y112776D03*
D25*
X771296Y168656D03*
X790296Y168656D03*
X773836Y140716D03*
X792836Y140716D03*
X616356Y188976D03*
X635356Y188976D03*
D11*
X625856Y118516D03*
X625856Y137516D03*
D35*
X833776Y162336D03*
D21*
X864976Y148336D03*
D35*
X833776Y134336D03*
X551836Y192816D03*
D21*
X583036Y178816D03*
D35*
X551836Y164816D03*
D31*
X775716Y105156D03*
D30*
X959358Y167386D03*
X959358Y154686D03*
X959358Y141986D03*
X959358Y129286D03*
X1008634Y129286D03*
X1008634Y141986D03*
X1008634Y154686D03*
X1008634Y167386D03*
X672338Y172466D03*
X672338Y159766D03*
X672338Y147066D03*
X672338Y134366D03*
X721614Y134366D03*
X721614Y147066D03*
X721614Y159766D03*
X721614Y172466D03*
D25*
X1616100Y190754D03*
X1635100Y190754D03*
X1350620Y114554D03*
X1331620Y114554D03*
X1621180Y109474D03*
X1640180Y109474D03*
X1350620Y198374D03*
X1331620Y198374D03*
D31*
X1483360Y106934D03*
X1384300Y198374D03*
X1473200Y200914D03*
X1181100Y122174D03*
D25*
X1257960Y162814D03*
X1276960Y162814D03*
X1214780Y122174D03*
X1233780Y122174D03*
X1571600Y190754D03*
X1552600Y190754D03*
X1566520Y155194D03*
X1547520Y155194D03*
D28*
X1523120Y114554D03*
X1540120Y114554D03*
D25*
X1415440Y170434D03*
X1434440Y170434D03*
X1417980Y142494D03*
X1436980Y142494D03*
X1260500Y190754D03*
X1279500Y190754D03*
D11*
X1270000Y120294D03*
X1270000Y139294D03*
D35*
X1477920Y164114D03*
D21*
X1509120Y150114D03*
D35*
X1477920Y136114D03*
X1195980Y194594D03*
D21*
X1227180Y180594D03*
D35*
X1195980Y166594D03*
D31*
X1419860Y106934D03*
D30*
X1603502Y169164D03*
X1603502Y156464D03*
X1603502Y143764D03*
X1603502Y131064D03*
X1652778Y131064D03*
X1652778Y143764D03*
X1652778Y156464D03*
X1652778Y169164D03*
X1316482Y174244D03*
X1316482Y161544D03*
X1316482Y148844D03*
X1316482Y136144D03*
X1365758Y136144D03*
X1365758Y148844D03*
X1365758Y161544D03*
X1365758Y174244D03*
M02*
